<?xml version="1.0" encoding="UTF-8" standalone="no"?><svg xmlns="http://www.w3.org/2000/svg" xmlns:xlink="http://www.w3.org/1999/xlink" contentScriptType="application/ecmascript" contentStyleType="text/css" height="654px" preserveAspectRatio="none" style="width:279px;height:654px;" version="1.1" viewBox="0 0 279 654" width="279px" zoomAndPan="magnify"><defs><filter height="300%" id="fgtznnko65id" width="300%" x="-1" y="-1"><feGaussianBlur result="blurOut" stdDeviation="2.0"/><feColorMatrix in="blurOut" result="blurOut2" type="matrix" values="0 0 0 0 0 0 0 0 0 0 0 0 0 0 0 0 0 0 .4 0"/><feOffset dx="4.0" dy="4.0" in="blurOut2" result="blurOut3"/><feBlend in="SourceGraphic" in2="blurOut3" mode="normal"/></filter></defs><g><text fill="#000000" font-family="sans-serif" font-size="18" lengthAdjust="spacing" textLength="196" x="35" y="16.708">Arquitectura Angular</text><!--MD5=[72e0e0ccd164328bf142806e6dd51840]
cluster Injector--><rect fill="#FFFFFF" filter="url(#fgtznnko65id)" height="130" style="stroke:#000000;stroke-width:1.5;" width="203" x="62" y="392.9531"/><rect fill="#FFFFFF" height="10" style="stroke:#000000;stroke-width:1.5;" width="15" x="245" y="397.9531"/><rect fill="#FFFFFF" height="2" style="stroke:#000000;stroke-width:1.5;" width="4" x="243" y="399.9531"/><rect fill="#FFFFFF" height="2" style="stroke:#000000;stroke-width:1.5;" width="4" x="243" y="403.9531"/><text fill="#000000" font-family="sans-serif" font-size="14" font-weight="bold" lengthAdjust="spacing" textLength="63" x="132" y="418.9482">Injector</text><!--MD5=[17737e49c286898813382e12d6080e03]
entity Service--><rect fill="#FEFECE" filter="url(#fgtznnko65id)" height="62.5938" style="stroke:#A80036;stroke-width:1.5;" width="136" x="105" y="435.9531"/><rect fill="#FEFECE" height="10" style="stroke:#A80036;stroke-width:1.5;" width="15" x="221" y="440.9531"/><rect fill="#FEFECE" height="2" style="stroke:#A80036;stroke-width:1.5;" width="4" x="219" y="442.9531"/><rect fill="#FEFECE" height="2" style="stroke:#A80036;stroke-width:1.5;" width="4" x="219" y="446.9531"/><text fill="#000000" font-family="sans-serif" font-size="14" font-style="italic" lengthAdjust="spacing" textLength="96" x="120" y="468.9482">«Controllers»</text><text fill="#000000" font-family="sans-serif" font-size="14" lengthAdjust="spacing" textLength="53" x="141.5" y="485.2451">Service</text><!--MD5=[2456f3a6f5aa4d75f9c9b6fd42c52dfa]
entity Main--><rect fill="#FEFECE" filter="url(#fgtznnko65id)" height="46.2969" style="stroke:#A80036;stroke-width:1.5;" width="73" x="33.5" y="27.9531"/><rect fill="#FEFECE" height="10" style="stroke:#A80036;stroke-width:1.5;" width="15" x="86.5" y="32.9531"/><rect fill="#FEFECE" height="2" style="stroke:#A80036;stroke-width:1.5;" width="4" x="84.5" y="34.9531"/><rect fill="#FEFECE" height="2" style="stroke:#A80036;stroke-width:1.5;" width="4" x="84.5" y="38.9531"/><text fill="#000000" font-family="sans-serif" font-size="14" lengthAdjust="spacing" textLength="33" x="48.5" y="60.9482">Main</text><!--MD5=[4b2e10826504409b3d803dd780c7ad90]
entity NgModule--><rect fill="#FEFECE" filter="url(#fgtznnko65id)" height="62.5938" style="stroke:#A80036;stroke-width:1.5;" width="118" x="11" y="134.9531"/><rect fill="#FEFECE" height="10" style="stroke:#A80036;stroke-width:1.5;" width="15" x="109" y="139.9531"/><rect fill="#FEFECE" height="2" style="stroke:#A80036;stroke-width:1.5;" width="4" x="107" y="141.9531"/><rect fill="#FEFECE" height="2" style="stroke:#A80036;stroke-width:1.5;" width="4" x="107" y="145.9531"/><text fill="#000000" font-family="sans-serif" font-size="14" font-style="italic" lengthAdjust="spacing" textLength="78" x="26" y="167.9482">«Package»</text><text fill="#000000" font-family="sans-serif" font-size="14" lengthAdjust="spacing" textLength="70" x="30" y="184.2451">NgModule</text><!--MD5=[16fab723be418f7eaf2ea4bd895a8e51]
entity C--><rect fill="#FEFECE" filter="url(#fgtznnko65id)" height="62.5938" style="stroke:#A80036;stroke-width:1.5;" width="126" x="7" y="258.9531"/><rect fill="#FEFECE" height="10" style="stroke:#A80036;stroke-width:1.5;" width="15" x="113" y="263.9531"/><rect fill="#FEFECE" height="2" style="stroke:#A80036;stroke-width:1.5;" width="4" x="111" y="265.9531"/><rect fill="#FEFECE" height="2" style="stroke:#A80036;stroke-width:1.5;" width="4" x="111" y="269.9531"/><text fill="#000000" font-family="sans-serif" font-size="14" font-style="italic" lengthAdjust="spacing" textLength="52" x="39" y="291.9482">«View»</text><text fill="#000000" font-family="sans-serif" font-size="14" lengthAdjust="spacing" textLength="86" x="22" y="308.2451">Component</text><!--MD5=[d98cb1d0eeb2b90d1ef52cfc0fcf4fea]
entity Model--><rect fill="#FEFECE" filter="url(#fgtznnko65id)" height="62.5938" style="stroke:#A80036;stroke-width:1.5;" width="101" x="11.5" y="577.9531"/><rect fill="#FEFECE" height="10" style="stroke:#A80036;stroke-width:1.5;" width="15" x="92.5" y="582.9531"/><rect fill="#FEFECE" height="2" style="stroke:#A80036;stroke-width:1.5;" width="4" x="90.5" y="584.9531"/><rect fill="#FEFECE" height="2" style="stroke:#A80036;stroke-width:1.5;" width="4" x="90.5" y="588.9531"/><text fill="#000000" font-family="sans-serif" font-size="14" font-style="italic" lengthAdjust="spacing" textLength="61" x="26.5" y="610.9482">«Model»</text><text fill="#000000" font-family="sans-serif" font-size="14" lengthAdjust="spacing" textLength="43" x="35.5" y="627.2451">Model</text><!--MD5=[2e32770391be5a50facd2e5ff82094ac]
link NgModule to NgModule--><path d="M129.208,154.8291 C148.577,154.8891 164,158.7641 164,166.4531 C164,173.4221 151.333,177.2571 134.542,177.9601 " fill="none" id="NgModule-to-NgModule" style="stroke:#A80036;stroke-width:1.0;"/><polygon fill="#A80036" points="129.208,178.0771,138.2949,181.8756,134.2068,177.9657,138.1166,173.8775,129.208,178.0771" style="stroke:#A80036;stroke-width:1.0;"/><text fill="#000000" font-family="sans-serif" font-size="13" lengthAdjust="spacing" textLength="23" x="136.9417" y="175.6246">0..*</text><!--MD5=[ce7eb0dad3f1bf731abd0acd03f57597]
link Main to NgModule--><path d="M70,74.1061 C70,89.9101 70,111.5021 70,129.7261 " fill="none" id="Main-to-NgModule" style="stroke:#A80036;stroke-width:1.0;"/><polygon fill="#A80036" points="70,134.7691,74,125.7691,70,129.7691,66,125.7691,70,134.7691" style="stroke:#A80036;stroke-width:1.0;"/><!--MD5=[aec4fbe51bfed1674fed9fce1a6769c4]
link NgModule to C--><path d="M70,210.2391 C70,210.2391 70,234.5261 70,245.6411 " fill="none" id="NgModule-C" style="stroke:#A80036;stroke-width:1.0;"/><polygon fill="#A80036" points="70,258.6771,74,249.6771,70,253.6771,66,249.6771,70,258.6771" style="stroke:#A80036;stroke-width:1.0;"/><line style="stroke:#A80036;stroke-width:1.0;" x1="70" x2="70.0001" y1="253.6771" y2="245.6771"/><polygon fill="#A80036" points="70,198.2391,66,204.2391,70,210.2391,74,204.2391,70,198.2391" style="stroke:#A80036;stroke-width:1.0;"/><text fill="#000000" font-family="sans-serif" font-size="13" lengthAdjust="spacing" textLength="23" x="44.6281" y="247.6989">1..*</text><!--MD5=[95b5035d32470aaedd1953f14715ec9f]
reverse link C to Injector--><path d="M67.9108,327.6731 C67.5315,335.6671 67.1947,344.0941 67,351.9531 C66.6897,364.4771 66.7138,377.7713 66.9265,390.6981 C66.9331,391.1021 66.94,391.5057 66.947,391.9089 C66.9505,392.1105 66.954,392.312 66.9576,392.5134 " fill="none" id="C-backto-Injector" style="stroke:#A80036;stroke-width:1.0;stroke-dasharray:7.0,7.0;"/><polygon fill="#A80036" points="68.1789,322.2201,63.7415,331.0127,67.9332,327.2141,71.7318,331.4058,68.1789,322.2201" style="stroke:#A80036;stroke-width:1.0;"/><text fill="#000000" font-family="sans-serif" font-size="13" lengthAdjust="spacing" textLength="84" x="68" y="365.02">Inject service</text><!--MD5=[a4486c1293ef27a5191b5c35064c5e35]
link C to Service--><path d="M128.587,322.1221 C139.596,330.4051 149.873,340.3541 157,351.9531 C171.361,375.3241 174.949,406.3731 175.173,430.2421 " fill="none" id="C-to-Service" style="stroke:#A80036;stroke-width:1.0;"/><polygon fill="#A80036" points="175.169,435.5291,179.169,426.5291,175.169,430.5291,171.169,426.5291,175.169,435.5291" style="stroke:#A80036;stroke-width:1.0;"/><!--MD5=[b8929c7e82baaae7bf3098cd499147cc]
link Service to Model--><path d="M148.641,499.1771 C131.218,521.1511 107.742,550.7611 89.6211,573.6157 " fill="none" id="Service-to-Model" style="stroke:#A80036;stroke-width:1.0;stroke-dasharray:7.0,7.0;"/><polygon fill="#A80036" points="86.3026,577.8012,95.0284,573.2338,89.4089,573.8832,88.7595,568.2637,86.3026,577.8012" style="stroke:#A80036;stroke-width:1.0;"/><!--MD5=[34d50b25994246c791d610ec1f1f7b93]
link C to Model--><path d="M62.8367,322.1281 C59.4153,338.3301 55.7017,358.6081 54,376.9531 C47.3497,448.6451 49.8765,467.0711 54,538.9531 C54.6277,549.8947 55.8068,561.7576 57.0706,572.5331 " fill="none" id="C-to-Model" style="stroke:#A80036;stroke-width:1.0;stroke-dasharray:7.0,7.0;"/><polygon fill="#A80036" points="57.6958,577.7267,60.5912,568.3131,57.0981,572.7626,52.6486,569.2694,57.6958,577.7267" style="stroke:#A80036;stroke-width:1.0;"/><!--MD5=[0ebadc3f60c1c001daf8d3f2f547d0fb]
@startuml
title "Arquitectura Angular"

component Main
component NgModule <<Package>> 
component C as "Component" <<View>>
component Injector {
    component Service <<Controllers>>
}
component Model <<Model>> 

NgModule - -> "0..*" NgModule
Main - -> NgModule
NgModule *- -> "1..*" C
Injector .up.> C : Inject service
C -down-> Service
Service ..> Model
C ..> Model
@enduml

PlantUML version 1.2021.5beta3(Unknown compile time)
(GPL source distribution)
Java Runtime: Java(TM) SE Runtime Environment
JVM: Java HotSpot(TM) 64-Bit Server VM
Default Encoding: UTF-8
Language: en
Country: US
--></g></svg>