<?xml version="1.0" encoding="UTF-8" standalone="no"?><svg xmlns="http://www.w3.org/2000/svg" xmlns:xlink="http://www.w3.org/1999/xlink" contentScriptType="application/ecmascript" contentStyleType="text/css" height="409px" preserveAspectRatio="none" style="width:378px;height:409px;" version="1.1" viewBox="0 0 378 409" width="378px" zoomAndPan="magnify"><defs><filter height="300%" id="fnvab7df3ucef" width="300%" x="-1" y="-1"><feGaussianBlur result="blurOut" stdDeviation="2.0"/><feColorMatrix in="blurOut" result="blurOut2" type="matrix" values="0 0 0 0 0 0 0 0 0 0 0 0 0 0 0 0 0 0 .4 0"/><feOffset dx="4.0" dy="4.0" in="blurOut2" result="blurOut3"/><feBlend in="SourceGraphic" in2="blurOut3" mode="normal"/></filter></defs><g><text fill="#000000" font-family="sans-serif" font-size="18" lengthAdjust="spacing" textLength="320" x="22.75" y="16.708">Arquitectura Angular Componente</text><!--MD5=[03efba9646de4f293b96a919cc2bc528]
cluster ViewComponent--><rect fill="#FFFFFF" filter="url(#fnvab7df3ucef)" height="368" style="stroke:#000000;stroke-width:1.5;" width="260" x="7" y="27.9531"/><rect fill="#FFFFFF" height="10" style="stroke:#000000;stroke-width:1.5;" width="15" x="247" y="32.9531"/><rect fill="#FFFFFF" height="2" style="stroke:#000000;stroke-width:1.5;" width="4" x="245" y="34.9531"/><rect fill="#FFFFFF" height="2" style="stroke:#000000;stroke-width:1.5;" width="4" x="245" y="38.9531"/><text fill="#000000" font-family="sans-serif" font-size="14" font-style="italic" lengthAdjust="spacing" textLength="75" x="99.5" y="53.9482">«MVP-VM»</text><text fill="#000000" font-family="sans-serif" font-size="14" font-weight="bold" lengthAdjust="spacing" textLength="130" x="72" y="70.2451">ViewComponent</text><!--MD5=[4e13963c9dc916a21a8436ef39422b32]
class Component--><rect codeLine="4" fill="#FEFECE" filter="url(#fnvab7df3ucef)" height="53.9375" id="Component" style="stroke:#A80036;stroke-width:1.5;" width="101" x="23.5" y="194.9531"/><ellipse cx="38.5" cy="213.9219" fill="#ADD1B2" rx="11" ry="11" style="stroke:#A80036;stroke-width:1.0;"/><path d="M40.8438,209.5938 C39.9063,209.1563 39.3125,209.0156 38.4375,209.0156 C35.8125,209.0156 33.8125,211.0938 33.8125,213.8125 L33.8125,214.9375 C33.8125,217.5156 35.9219,219.4063 38.8125,219.4063 C40.0313,219.4063 41.1875,219.1094 41.9375,218.5625 C42.5156,218.1563 42.8438,217.7031 42.8438,217.3125 C42.8438,216.8594 42.4531,216.4688 41.9844,216.4688 C41.7656,216.4688 41.5625,216.5469 41.375,216.7344 C40.9219,217.2188 40.9219,217.2188 40.7344,217.3125 C40.3125,217.5781 39.625,217.7031 38.8594,217.7031 C36.8125,217.7031 35.5156,216.6094 35.5156,214.9063 L35.5156,213.8125 C35.5156,212.0313 36.7656,210.7188 38.5,210.7188 C39.0781,210.7188 39.6875,210.875 40.1563,211.125 C40.6406,211.4063 40.8125,211.625 40.9063,212.0313 C40.9688,212.4375 41,212.5625 41.1406,212.6875 C41.2813,212.8281 41.5156,212.9375 41.7344,212.9375 C42,212.9375 42.2656,212.7969 42.4375,212.5781 C42.5469,212.4219 42.5781,212.2344 42.5781,211.8125 L42.5781,210.3906 C42.5781,209.9531 42.5625,209.8281 42.4688,209.6719 C42.3125,209.4063 42.0313,209.2656 41.7344,209.2656 C41.4375,209.2656 41.2344,209.3594 41.0156,209.6719 L40.8438,209.5938 Z " fill="#000000"/><text fill="#000000" font-family="sans-serif" font-size="12" font-style="italic" lengthAdjust="spacing" textLength="72" x="51" y="211.0918">«presenter»</text><text fill="#000000" font-family="sans-serif" font-size="12" lengthAdjust="spacing" textLength="69" x="52.5" y="225.0605">Component</text><line style="stroke:#A80036;stroke-width:1.5;" x1="24.5" x2="123.5" y1="232.8906" y2="232.8906"/><line style="stroke:#A80036;stroke-width:1.5;" x1="24.5" x2="123.5" y1="240.8906" y2="240.8906"/><!--MD5=[f7b0ce1058582c7b488301e6e7114ba2]
class Css--><rect codeLine="5" fill="#FEFECE" filter="url(#fnvab7df3ucef)" height="53.9375" id="Css" style="stroke:#A80036;stroke-width:1.5;" width="91" x="159.5" y="194.9531"/><ellipse cx="174.5" cy="213.9219" fill="#ADD1B2" rx="11" ry="11" style="stroke:#A80036;stroke-width:1.0;"/><path d="M176.8438,209.5938 C175.9063,209.1563 175.3125,209.0156 174.4375,209.0156 C171.8125,209.0156 169.8125,211.0938 169.8125,213.8125 L169.8125,214.9375 C169.8125,217.5156 171.9219,219.4063 174.8125,219.4063 C176.0313,219.4063 177.1875,219.1094 177.9375,218.5625 C178.5156,218.1563 178.8438,217.7031 178.8438,217.3125 C178.8438,216.8594 178.4531,216.4688 177.9844,216.4688 C177.7656,216.4688 177.5625,216.5469 177.375,216.7344 C176.9219,217.2188 176.9219,217.2188 176.7344,217.3125 C176.3125,217.5781 175.625,217.7031 174.8594,217.7031 C172.8125,217.7031 171.5156,216.6094 171.5156,214.9063 L171.5156,213.8125 C171.5156,212.0313 172.7656,210.7188 174.5,210.7188 C175.0781,210.7188 175.6875,210.875 176.1563,211.125 C176.6406,211.4063 176.8125,211.625 176.9063,212.0313 C176.9688,212.4375 177,212.5625 177.1406,212.6875 C177.2813,212.8281 177.5156,212.9375 177.7344,212.9375 C178,212.9375 178.2656,212.7969 178.4375,212.5781 C178.5469,212.4219 178.5781,212.2344 178.5781,211.8125 L178.5781,210.3906 C178.5781,209.9531 178.5625,209.8281 178.4688,209.6719 C178.3125,209.4063 178.0313,209.2656 177.7344,209.2656 C177.4375,209.2656 177.2344,209.3594 177.0156,209.6719 L176.8438,209.5938 Z " fill="#000000"/><text fill="#000000" font-family="sans-serif" font-size="12" font-style="italic" lengthAdjust="spacing" textLength="63" x="186.5" y="211.0918">«¿model?»</text><text fill="#000000" font-family="sans-serif" font-size="12" lengthAdjust="spacing" textLength="22" x="207" y="225.0605">Css</text><line style="stroke:#A80036;stroke-width:1.5;" x1="160.5" x2="249.5" y1="232.8906" y2="232.8906"/><line style="stroke:#A80036;stroke-width:1.5;" x1="160.5" x2="249.5" y1="240.8906" y2="240.8906"/><!--MD5=[96269829fba97c692425f8ee188857ec]
class HtmlTemplate--><rect codeLine="6" fill="#FEFECE" filter="url(#fnvab7df3ucef)" height="53.9375" id="HtmlTemplate" style="stroke:#A80036;stroke-width:1.5;" width="115" x="23.5" y="325.9531"/><ellipse cx="38.5" cy="344.9219" fill="#ADD1B2" rx="11" ry="11" style="stroke:#A80036;stroke-width:1.0;"/><path d="M40.8438,340.5938 C39.9063,340.1563 39.3125,340.0156 38.4375,340.0156 C35.8125,340.0156 33.8125,342.0938 33.8125,344.8125 L33.8125,345.9375 C33.8125,348.5156 35.9219,350.4063 38.8125,350.4063 C40.0313,350.4063 41.1875,350.1094 41.9375,349.5625 C42.5156,349.1563 42.8438,348.7031 42.8438,348.3125 C42.8438,347.8594 42.4531,347.4688 41.9844,347.4688 C41.7656,347.4688 41.5625,347.5469 41.375,347.7344 C40.9219,348.2188 40.9219,348.2188 40.7344,348.3125 C40.3125,348.5781 39.625,348.7031 38.8594,348.7031 C36.8125,348.7031 35.5156,347.6094 35.5156,345.9063 L35.5156,344.8125 C35.5156,343.0313 36.7656,341.7188 38.5,341.7188 C39.0781,341.7188 39.6875,341.875 40.1563,342.125 C40.6406,342.4063 40.8125,342.625 40.9063,343.0313 C40.9688,343.4375 41,343.5625 41.1406,343.6875 C41.2813,343.8281 41.5156,343.9375 41.7344,343.9375 C42,343.9375 42.2656,343.7969 42.4375,343.5781 C42.5469,343.4219 42.5781,343.2344 42.5781,342.8125 L42.5781,341.3906 C42.5781,340.9531 42.5625,340.8281 42.4688,340.6719 C42.3125,340.4063 42.0313,340.2656 41.7344,340.2656 C41.4375,340.2656 41.2344,340.3594 41.0156,340.6719 L40.8438,340.5938 Z " fill="#000000"/><text fill="#000000" font-family="sans-serif" font-size="12" font-style="italic" lengthAdjust="spacing" textLength="41" x="73.5" y="342.0918">«view»</text><text fill="#000000" font-family="sans-serif" font-size="12" lengthAdjust="spacing" textLength="83" x="52.5" y="356.0605">HtmlTemplate</text><line style="stroke:#A80036;stroke-width:1.5;" x1="24.5" x2="137.5" y1="363.8906" y2="363.8906"/><line style="stroke:#A80036;stroke-width:1.5;" x1="24.5" x2="137.5" y1="371.8906" y2="371.8906"/><path d="M23,78.9531 L23,134.3516 A0,0 0 0 0 23,134.3516 L116.698,134.3516 L88.0018,194.9001 L124.698,134.3516 L247,134.3516 A0,0 0 0 0 247,134.3516 L247,88.9531 L237,78.9531 L23,78.9531 A0,0 0 0 0 23,78.9531 " fill="#FBFB77" filter="url(#fnvab7df3ucef)" style="stroke:#A80036;stroke-width:1.0;"/><path d="M237,78.9531 L237,88.9531 L247,88.9531 L237,78.9531 " fill="#FBFB77" style="stroke:#A80036;stroke-width:1.0;"/><text fill="#000000" font-family="sans-serif" font-size="13" lengthAdjust="spacing" textLength="65" x="29" y="96.02">Metadata:</text><text fill="#000000" font-family="sans-serif" font-size="13" lengthAdjust="spacing" textLength="187" x="45" y="111.1528">-template: enlace / integrado</text><text fill="#000000" font-family="sans-serif" font-size="13" lengthAdjust="spacing" textLength="150" x="45" y="126.2856">-css: enlace / integrado</text><!--MD5=[dbb8b4f13c7b21394f9d757e58732f45]
class Service--><rect codeLine="20" fill="#FEFECE" filter="url(#fnvab7df3ucef)" height="53.9375" id="Service" style="stroke:#A80036;stroke-width:1.5;" width="79" x="285.5" y="194.9531"/><ellipse cx="300.5" cy="213.9219" fill="#ADD1B2" rx="11" ry="11" style="stroke:#A80036;stroke-width:1.0;"/><path d="M302.8438,209.5938 C301.9063,209.1563 301.3125,209.0156 300.4375,209.0156 C297.8125,209.0156 295.8125,211.0938 295.8125,213.8125 L295.8125,214.9375 C295.8125,217.5156 297.9219,219.4063 300.8125,219.4063 C302.0313,219.4063 303.1875,219.1094 303.9375,218.5625 C304.5156,218.1563 304.8438,217.7031 304.8438,217.3125 C304.8438,216.8594 304.4531,216.4688 303.9844,216.4688 C303.7656,216.4688 303.5625,216.5469 303.375,216.7344 C302.9219,217.2188 302.9219,217.2188 302.7344,217.3125 C302.3125,217.5781 301.625,217.7031 300.8594,217.7031 C298.8125,217.7031 297.5156,216.6094 297.5156,214.9063 L297.5156,213.8125 C297.5156,212.0313 298.7656,210.7188 300.5,210.7188 C301.0781,210.7188 301.6875,210.875 302.1563,211.125 C302.6406,211.4063 302.8125,211.625 302.9063,212.0313 C302.9688,212.4375 303,212.5625 303.1406,212.6875 C303.2813,212.8281 303.5156,212.9375 303.7344,212.9375 C304,212.9375 304.2656,212.7969 304.4375,212.5781 C304.5469,212.4219 304.5781,212.2344 304.5781,211.8125 L304.5781,210.3906 C304.5781,209.9531 304.5625,209.8281 304.4688,209.6719 C304.3125,209.4063 304.0313,209.2656 303.7344,209.2656 C303.4375,209.2656 303.2344,209.3594 303.0156,209.6719 L302.8438,209.5938 Z " fill="#000000"/><text fill="#000000" font-family="sans-serif" font-size="12" font-style="italic" lengthAdjust="spacing" textLength="51" x="312.5" y="211.0918">«model»</text><text fill="#000000" font-family="sans-serif" font-size="12" lengthAdjust="spacing" textLength="46" x="315" y="225.0605">Service</text><line style="stroke:#A80036;stroke-width:1.5;" x1="286.5" x2="363.5" y1="232.8906" y2="232.8906"/><line style="stroke:#A80036;stroke-width:1.5;" x1="286.5" x2="363.5" y1="240.8906" y2="240.8906"/><!--MD5=[0ec3d6250cfe2ea6a1de2a7ffadc6e57]
link Component to Css--><path codeLine="8" d="M124.66,221.9531 C134.548,221.9531 144.436,221.9531 154.324,221.9531 " fill="none" id="Component-to-Css" style="stroke:#A80036;stroke-width:1.0;"/><polygon fill="#A80036" points="159.495,221.9531,150.495,217.9531,154.495,221.9531,150.495,225.9531,159.495,221.9531" style="stroke:#A80036;stroke-width:1.0;"/><!--MD5=[fa422c52539d12ecdc0251c618494803]
link Component to HtmlTemplate--><path codeLine="9" d="M75.6952,254.1941 C76.7934,274.4321 78.218,300.6851 79.3143,320.8881 " fill="none" id="Component-HtmlTemplate" style="stroke:#A80036;stroke-width:1.0;"/><polygon fill="#A80036" points="79.5856,325.8868,83.0919,316.6833,79.3146,320.8942,75.1037,317.1169,79.5856,325.8868" style="stroke:#A80036;stroke-width:1.0;"/><polygon fill="#A80036" points="75.4166,249.0581,71.9111,258.262,75.688,254.0508,79.8993,257.8277,75.4166,249.0581" style="stroke:#A80036;stroke-width:1.0;"/><text fill="#000000" font-family="sans-serif" font-size="13" lengthAdjust="spacing" textLength="81" x="78" y="292.02">Data Binding</text><!--MD5=[f26a4edf4aa5937f2e2015b2f64b0265]
link Component to Service--><path codeLine="21" d="M104.542,194.9061 C119.902,183.0941 139.481,170.5581 159.5,164.4531 C197.76,152.7841 211.6,151.6641 249.5,164.4531 C265.911,169.9911 281.576,180.6771 294.339,191.3491 " fill="none" id="Component-to-Service" style="stroke:#A80036;stroke-width:1.0;"/><polygon fill="#A80036" points="298.205,194.6541,293.9652,185.7646,294.4052,191.4043,288.7655,191.8443,298.205,194.6541" style="stroke:#A80036;stroke-width:1.0;"/><!--MD5=[1d433923b69afad5350acafdb57a33c2]
@startuml
title "Arquitectura Angular Componente"

component ViewComponent <<MVP-VM>> {
    class Component <<presenter>>
    class Css <<¿model?>>
    class HtmlTemplate <<view>>
    
    Component -right-> Css
    Component <-down-> HtmlTemplate : Data Binding

    note top of Component 
        Metadata:
            -template: enlace / integrado
            -css: enlace / integrado
    end note

    
}

class Service <<model>>
Component -right-> Service
@enduml

PlantUML version 1.2021.5beta3(Unknown compile time)
(GPL source distribution)
Java Runtime: Java(TM) SE Runtime Environment
JVM: Java HotSpot(TM) 64-Bit Server VM
Default Encoding: UTF-8
Language: en
Country: US
--></g></svg>