<?xml version="1.0" encoding="UTF-8" standalone="no"?><svg xmlns="http://www.w3.org/2000/svg" xmlns:xlink="http://www.w3.org/1999/xlink" contentScriptType="application/ecmascript" contentStyleType="text/css" height="473px" preserveAspectRatio="none" style="width:481px;height:473px;" version="1.1" viewBox="0 0 481 473" width="481px" zoomAndPan="magnify"><defs><filter height="300%" id="fqdkqgzf00ssp" width="300%" x="-1" y="-1"><feGaussianBlur result="blurOut" stdDeviation="2.0"/><feColorMatrix in="blurOut" result="blurOut2" type="matrix" values="0 0 0 0 0 0 0 0 0 0 0 0 0 0 0 0 0 0 .4 0"/><feOffset dx="4.0" dy="4.0" in="blurOut2" result="blurOut3"/><feBlend in="SourceGraphic" in2="blurOut3" mode="normal"/></filter></defs><g><text fill="#000000" font-family="sans-serif" font-size="18" lengthAdjust="spacing" textLength="444" x="20.5" y="28.708">Diagramna de secuencia de Arquitectura NestJs</text><line style="stroke:#A80036;stroke-width:1.0;stroke-dasharray:5.0,5.0;" x1="23" x2="23" y1="123.25" y2="389.3125"/><line style="stroke:#A80036;stroke-width:1.0;stroke-dasharray:5.0,5.0;" x1="143" x2="143" y1="123.25" y2="389.3125"/><line style="stroke:#A80036;stroke-width:1.0;stroke-dasharray:5.0,5.0;" x1="253" x2="253" y1="123.25" y2="389.3125"/><line style="stroke:#A80036;stroke-width:1.0;stroke-dasharray:5.0,5.0;" x1="378" x2="378" y1="123.25" y2="389.3125"/><line style="stroke:#A80036;stroke-width:1.0;stroke-dasharray:5.0,5.0;" x1="455" x2="455" y1="123.25" y2="389.3125"/><text fill="#000000" font-family="sans-serif" font-size="14" lengthAdjust="spacing" textLength="31" x="5" y="119.9482">User</text><ellipse cx="23.5" cy="49.9531" fill="#FEFECE" filter="url(#fqdkqgzf00ssp)" rx="8" ry="8" style="stroke:#A80036;stroke-width:2.0;"/><path d="M23.5,57.9531 L23.5,84.9531 M10.5,65.9531 L36.5,65.9531 M23.5,84.9531 L10.5,99.9531 M23.5,84.9531 L36.5,99.9531 " fill="none" filter="url(#fqdkqgzf00ssp)" style="stroke:#A80036;stroke-width:2.0;"/><text fill="#000000" font-family="sans-serif" font-size="14" lengthAdjust="spacing" textLength="31" x="5" y="401.3076">User</text><ellipse cx="23.5" cy="414.6094" fill="#FEFECE" filter="url(#fqdkqgzf00ssp)" rx="8" ry="8" style="stroke:#A80036;stroke-width:2.0;"/><path d="M23.5,422.6094 L23.5,449.6094 M10.5,430.6094 L36.5,430.6094 M23.5,449.6094 L10.5,464.6094 M23.5,449.6094 L36.5,464.6094 " fill="none" filter="url(#fqdkqgzf00ssp)" style="stroke:#A80036;stroke-width:2.0;"/><text fill="#000000" font-family="sans-serif" font-size="14" lengthAdjust="spacing" textLength="73" x="104" y="119.9482">Controller</text><ellipse cx="143.5" cy="90.9531" fill="#FEFECE" filter="url(#fqdkqgzf00ssp)" rx="12" ry="12" style="stroke:#A80036;stroke-width:2.0;"/><polygon fill="#A80036" points="139.5,78.9531,145.5,73.9531,143.5,78.9531,145.5,83.9531,139.5,78.9531" style="stroke:#A80036;stroke-width:1.0;"/><text fill="#000000" font-family="sans-serif" font-size="14" lengthAdjust="spacing" textLength="73" x="104" y="401.3076">Controller</text><ellipse cx="143.5" cy="420.6094" fill="#FEFECE" filter="url(#fqdkqgzf00ssp)" rx="12" ry="12" style="stroke:#A80036;stroke-width:2.0;"/><polygon fill="#A80036" points="139.5,408.6094,145.5,403.6094,143.5,408.6094,145.5,413.6094,139.5,408.6094" style="stroke:#A80036;stroke-width:1.0;"/><text fill="#000000" font-family="sans-serif" font-size="14" lengthAdjust="spacing" textLength="53" x="224" y="119.9482">Service</text><ellipse cx="253.5" cy="90.9531" fill="#FEFECE" filter="url(#fqdkqgzf00ssp)" rx="12" ry="12" style="stroke:#A80036;stroke-width:2.0;"/><polygon fill="#A80036" points="249.5,78.9531,255.5,73.9531,253.5,78.9531,255.5,83.9531,249.5,78.9531" style="stroke:#A80036;stroke-width:1.0;"/><text fill="#000000" font-family="sans-serif" font-size="14" lengthAdjust="spacing" textLength="53" x="224" y="401.3076">Service</text><ellipse cx="253.5" cy="420.6094" fill="#FEFECE" filter="url(#fqdkqgzf00ssp)" rx="12" ry="12" style="stroke:#A80036;stroke-width:2.0;"/><polygon fill="#A80036" points="249.5,408.6094,255.5,403.6094,253.5,408.6094,255.5,413.6094,249.5,408.6094" style="stroke:#A80036;stroke-width:1.0;"/><text fill="#000000" font-family="sans-serif" font-size="14" lengthAdjust="spacing" textLength="79" x="336" y="119.9482">Repository</text><path d="M360.5,70.9531 C360.5,60.9531 378.5,60.9531 378.5,60.9531 C378.5,60.9531 396.5,60.9531 396.5,70.9531 L396.5,96.9531 C396.5,106.9531 378.5,106.9531 378.5,106.9531 C378.5,106.9531 360.5,106.9531 360.5,96.9531 L360.5,70.9531 " fill="#FEFECE" filter="url(#fqdkqgzf00ssp)" style="stroke:#000000;stroke-width:1.5;"/><path d="M360.5,70.9531 C360.5,80.9531 378.5,80.9531 378.5,80.9531 C378.5,80.9531 396.5,80.9531 396.5,70.9531 " fill="none" style="stroke:#000000;stroke-width:1.5;"/><text fill="#000000" font-family="sans-serif" font-size="14" lengthAdjust="spacing" textLength="79" x="336" y="401.3076">Repository</text><path d="M360.5,414.6094 C360.5,404.6094 378.5,404.6094 378.5,404.6094 C378.5,404.6094 396.5,404.6094 396.5,414.6094 L396.5,440.6094 C396.5,450.6094 378.5,450.6094 378.5,450.6094 C378.5,450.6094 360.5,450.6094 360.5,440.6094 L360.5,414.6094 " fill="#FEFECE" filter="url(#fqdkqgzf00ssp)" style="stroke:#000000;stroke-width:1.5;"/><path d="M360.5,414.6094 C360.5,424.6094 378.5,424.6094 378.5,424.6094 C378.5,424.6094 396.5,424.6094 396.5,414.6094 " fill="none" style="stroke:#000000;stroke-width:1.5;"/><text fill="#000000" font-family="sans-serif" font-size="14" lengthAdjust="spacing" textLength="43" x="431" y="119.9482">Model</text><ellipse cx="455.5" cy="90.9531" fill="#FEFECE" filter="url(#fqdkqgzf00ssp)" rx="12" ry="12" style="stroke:#A80036;stroke-width:2.0;"/><line style="stroke:#A80036;stroke-width:2.0;" x1="443.5" x2="467.5" y1="104.9531" y2="104.9531"/><text fill="#000000" font-family="sans-serif" font-size="14" lengthAdjust="spacing" textLength="43" x="431" y="401.3076">Model</text><ellipse cx="455.5" cy="420.6094" fill="#FEFECE" filter="url(#fqdkqgzf00ssp)" rx="12" ry="12" style="stroke:#A80036;stroke-width:2.0;"/><line style="stroke:#A80036;stroke-width:2.0;" x1="443.5" x2="467.5" y1="434.6094" y2="434.6094"/><polygon fill="#A80036" points="131.5,150.3828,141.5,154.3828,131.5,158.3828,135.5,154.3828" style="stroke:#A80036;stroke-width:1.0;"/><line style="stroke:#A80036;stroke-width:1.0;" x1="23.5" x2="137.5" y1="154.3828" y2="154.3828"/><text fill="#000000" font-family="sans-serif" font-size="13" lengthAdjust="spacing" textLength="79" x="30.5" y="149.3169">GET request</text><polygon fill="#A80036" points="241.5,179.5156,251.5,183.5156,241.5,187.5156,245.5,183.5156" style="stroke:#A80036;stroke-width:1.0;"/><line style="stroke:#A80036;stroke-width:1.0;" x1="143.5" x2="247.5" y1="183.5156" y2="183.5156"/><text fill="#000000" font-family="sans-serif" font-size="13" lengthAdjust="spacing" textLength="36" x="150.5" y="178.4497">getAll</text><polygon fill="#A80036" points="366.5,208.6484,376.5,212.6484,366.5,216.6484,370.5,212.6484" style="stroke:#A80036;stroke-width:1.0;"/><line style="stroke:#A80036;stroke-width:1.0;" x1="253.5" x2="372.5" y1="212.6484" y2="212.6484"/><text fill="#000000" font-family="sans-serif" font-size="13" lengthAdjust="spacing" textLength="36" x="260.5" y="207.5825">getAll</text><polygon fill="#A80036" points="443.5,237.7813,453.5,241.7813,443.5,245.7813,447.5,241.7813" style="stroke:#A80036;stroke-width:1.0;"/><line style="stroke:#A80036;stroke-width:1.0;" x1="378.5" x2="449.5" y1="241.7813" y2="241.7813"/><text fill="#000000" font-family="sans-serif" font-size="13" lengthAdjust="spacing" textLength="21" x="385.5" y="236.7153">get</text><polygon fill="#A80036" points="264.5,266.9141,254.5,270.9141,264.5,274.9141,260.5,270.9141" style="stroke:#A80036;stroke-width:1.0;"/><line style="stroke:#A80036;stroke-width:1.0;" x1="258.5" x2="377.5" y1="270.9141" y2="270.9141"/><text fill="#000000" font-family="sans-serif" font-size="13" lengthAdjust="spacing" textLength="100" x="270.5" y="265.8481">response Model</text><line style="stroke:#A80036;stroke-width:1.0;" x1="253.5" x2="295.5" y1="300.0469" y2="300.0469"/><line style="stroke:#A80036;stroke-width:1.0;" x1="295.5" x2="295.5" y1="300.0469" y2="313.0469"/><line style="stroke:#A80036;stroke-width:1.0;" x1="254.5" x2="295.5" y1="313.0469" y2="313.0469"/><polygon fill="#A80036" points="264.5,309.0469,254.5,313.0469,264.5,317.0469,260.5,313.0469" style="stroke:#A80036;stroke-width:1.0;"/><text fill="#000000" font-family="sans-serif" font-size="13" lengthAdjust="spacing" textLength="111" x="260.5" y="294.981">createDto(Model)</text><polygon fill="#A80036" points="154.5,338.1797,144.5,342.1797,154.5,346.1797,150.5,342.1797" style="stroke:#A80036;stroke-width:1.0;"/><line style="stroke:#A80036;stroke-width:1.0;" x1="148.5" x2="252.5" y1="342.1797" y2="342.1797"/><text fill="#000000" font-family="sans-serif" font-size="13" lengthAdjust="spacing" textLength="86" x="160.5" y="337.1138">response Dto</text><polygon fill="#A80036" points="34.5,367.3125,24.5,371.3125,34.5,375.3125,30.5,371.3125" style="stroke:#A80036;stroke-width:1.0;"/><line style="stroke:#A80036;stroke-width:1.0;stroke-dasharray:2.0,2.0;" x1="28.5" x2="142.5" y1="371.3125" y2="371.3125"/><text fill="#000000" font-family="sans-serif" font-size="13" lengthAdjust="spacing" textLength="96" x="40.5" y="366.2466">response (Dto)</text><!--MD5=[8806c28094c63de28231654b4987f12d]
@startuml
title "Diagramna de secuencia de Arquitectura NestJs"

actor User
control "Controller" as Controller
control "Service" as Service
database Repository
entity Model

User -> Controller : GET request
Controller -> Service : getAll
Service -> Repository : getAll
Repository -> Model : get
Repository -> Service : response Model
Service -> Service : createDto(Model)
Service -> Controller: response Dto
User <- - Controller : response (Dto)
@enduml

PlantUML version 1.2021.5beta3(Unknown compile time)
(GPL source distribution)
Java Runtime: Java(TM) SE Runtime Environment
JVM: Java HotSpot(TM) 64-Bit Server VM
Default Encoding: UTF-8
Language: en
Country: US
--></g></svg>