<?xml version="1.0" encoding="UTF-8" standalone="no"?><svg xmlns="http://www.w3.org/2000/svg" xmlns:xlink="http://www.w3.org/1999/xlink" contentScriptType="application/ecmascript" contentStyleType="text/css" height="372px" preserveAspectRatio="none" style="width:562px;height:372px;" version="1.1" viewBox="0 0 562 372" width="562px" zoomAndPan="magnify"><defs><filter height="300%" id="f1cwr0o8r4og7a" width="300%" x="-1" y="-1"><feGaussianBlur result="blurOut" stdDeviation="2.0"/><feColorMatrix in="blurOut" result="blurOut2" type="matrix" values="0 0 0 0 0 0 0 0 0 0 0 0 0 0 0 0 0 0 .4 0"/><feOffset dx="4.0" dy="4.0" in="blurOut2" result="blurOut3"/><feBlend in="SourceGraphic" in2="blurOut3" mode="normal"/></filter></defs><g><text fill="#000000" font-family="sans-serif" font-size="18" lengthAdjust="spacing" textLength="537" x="9" y="28.708">Diagramna de secuencia de Arquitectura Angular General</text><line style="stroke:#A80036;stroke-width:1.0;stroke-dasharray:5.0,5.0;" x1="79.25" x2="79.25" y1="123.25" y2="287.7813"/><line style="stroke:#A80036;stroke-width:1.0;stroke-dasharray:5.0,5.0;" x1="147.25" x2="147.25" y1="123.25" y2="287.7813"/><line style="stroke:#A80036;stroke-width:1.0;stroke-dasharray:5.0,5.0;" x1="242.25" x2="242.25" y1="123.25" y2="287.7813"/><line style="stroke:#A80036;stroke-width:1.0;stroke-dasharray:5.0,5.0;" x1="389.75" x2="389.75" y1="123.25" y2="287.7813"/><line style="stroke:#A80036;stroke-width:1.0;stroke-dasharray:5.0,5.0;" x1="468.75" x2="468.75" y1="123.25" y2="287.7813"/><text fill="#000000" font-family="sans-serif" font-size="14" lengthAdjust="spacing" textLength="31" x="61.25" y="119.9482">User</text><ellipse cx="79.75" cy="49.9531" fill="#FEFECE" filter="url(#f1cwr0o8r4og7a)" rx="8" ry="8" style="stroke:#A80036;stroke-width:2.0;"/><path d="M79.75,57.9531 L79.75,84.9531 M66.75,65.9531 L92.75,65.9531 M79.75,84.9531 L66.75,99.9531 M79.75,84.9531 L92.75,99.9531 " fill="none" filter="url(#f1cwr0o8r4og7a)" style="stroke:#A80036;stroke-width:2.0;"/><text fill="#000000" font-family="sans-serif" font-size="14" lengthAdjust="spacing" textLength="31" x="61.25" y="299.7764">User</text><ellipse cx="79.75" cy="313.0781" fill="#FEFECE" filter="url(#f1cwr0o8r4og7a)" rx="8" ry="8" style="stroke:#A80036;stroke-width:2.0;"/><path d="M79.75,321.0781 L79.75,348.0781 M66.75,329.0781 L92.75,329.0781 M79.75,348.0781 L66.75,363.0781 M79.75,348.0781 L92.75,363.0781 " fill="none" filter="url(#f1cwr0o8r4og7a)" style="stroke:#A80036;stroke-width:2.0;"/><text fill="#000000" font-family="sans-serif" font-size="14" lengthAdjust="spacing" textLength="72" x="108.25" y="119.9482">GETRoute</text><ellipse cx="147.25" cy="90.9531" fill="#FEFECE" filter="url(#f1cwr0o8r4og7a)" rx="12" ry="12" style="stroke:#A80036;stroke-width:2.0;"/><polygon fill="#A80036" points="143.25,78.9531,149.25,73.9531,147.25,78.9531,149.25,83.9531,143.25,78.9531" style="stroke:#A80036;stroke-width:1.0;"/><text fill="#000000" font-family="sans-serif" font-size="14" lengthAdjust="spacing" textLength="72" x="108.25" y="299.7764">GETRoute</text><ellipse cx="147.25" cy="319.0781" fill="#FEFECE" filter="url(#f1cwr0o8r4og7a)" rx="12" ry="12" style="stroke:#A80036;stroke-width:2.0;"/><polygon fill="#A80036" points="143.25,307.0781,149.25,302.0781,147.25,307.0781,149.25,312.0781,143.25,307.0781" style="stroke:#A80036;stroke-width:1.0;"/><text fill="#000000" font-family="sans-serif" font-size="14" lengthAdjust="spacing" textLength="86" x="196.25" y="119.9482">Component</text><path d="M221.75,78.9531 L221.75,102.9531 M221.75,90.9531 L238.75,90.9531 " fill="none" filter="url(#f1cwr0o8r4og7a)" style="stroke:#A80036;stroke-width:2.0;"/><ellipse cx="250.75" cy="90.9531" fill="#FEFECE" filter="url(#f1cwr0o8r4og7a)" rx="12" ry="12" style="stroke:#A80036;stroke-width:2.0;"/><text fill="#000000" font-family="sans-serif" font-size="14" lengthAdjust="spacing" textLength="86" x="196.25" y="299.7764">Component</text><path d="M221.75,307.0781 L221.75,331.0781 M221.75,319.0781 L238.75,319.0781 " fill="none" filter="url(#f1cwr0o8r4og7a)" style="stroke:#A80036;stroke-width:2.0;"/><ellipse cx="250.75" cy="319.0781" fill="#FEFECE" filter="url(#f1cwr0o8r4og7a)" rx="12" ry="12" style="stroke:#A80036;stroke-width:2.0;"/><text fill="#000000" font-family="sans-serif" font-size="14" lengthAdjust="spacing" textLength="53" x="360.75" y="119.9482">Service</text><ellipse cx="390.25" cy="90.9531" fill="#FEFECE" filter="url(#f1cwr0o8r4og7a)" rx="12" ry="12" style="stroke:#A80036;stroke-width:2.0;"/><polygon fill="#A80036" points="386.25,78.9531,392.25,73.9531,390.25,78.9531,392.25,83.9531,386.25,78.9531" style="stroke:#A80036;stroke-width:1.0;"/><text fill="#000000" font-family="sans-serif" font-size="14" lengthAdjust="spacing" textLength="53" x="360.75" y="299.7764">Service</text><ellipse cx="390.25" cy="319.0781" fill="#FEFECE" filter="url(#f1cwr0o8r4og7a)" rx="12" ry="12" style="stroke:#A80036;stroke-width:2.0;"/><polygon fill="#A80036" points="386.25,307.0781,392.25,302.0781,390.25,307.0781,392.25,312.0781,386.25,307.0781" style="stroke:#A80036;stroke-width:1.0;"/><text fill="#000000" font-family="sans-serif" font-size="14" lengthAdjust="spacing" textLength="43" x="444.75" y="119.9482">Model</text><ellipse cx="469.25" cy="90.9531" fill="#FEFECE" filter="url(#f1cwr0o8r4og7a)" rx="12" ry="12" style="stroke:#A80036;stroke-width:2.0;"/><line style="stroke:#A80036;stroke-width:2.0;" x1="457.25" x2="481.25" y1="104.9531" y2="104.9531"/><text fill="#000000" font-family="sans-serif" font-size="14" lengthAdjust="spacing" textLength="43" x="444.75" y="299.7764">Model</text><ellipse cx="469.25" cy="319.0781" fill="#FEFECE" filter="url(#f1cwr0o8r4og7a)" rx="12" ry="12" style="stroke:#A80036;stroke-width:2.0;"/><line style="stroke:#A80036;stroke-width:2.0;" x1="457.25" x2="481.25" y1="333.0781" y2="333.0781"/><polygon fill="#A80036" points="135.25,135.25,145.25,139.25,135.25,143.25,139.25,139.25" style="stroke:#A80036;stroke-width:1.0;"/><line style="stroke:#A80036;stroke-width:1.0;" x1="79.75" x2="141.25" y1="139.25" y2="139.25"/><polygon fill="#A80036" points="230.25,149.25,240.25,153.25,230.25,157.25,234.25,153.25" style="stroke:#A80036;stroke-width:1.0;"/><line style="stroke:#A80036;stroke-width:1.0;" x1="147.25" x2="236.25" y1="153.25" y2="153.25"/><polygon fill="#A80036" points="378.25,178.3828,388.25,182.3828,378.25,186.3828,382.25,182.3828" style="stroke:#A80036;stroke-width:1.0;"/><line style="stroke:#A80036;stroke-width:1.0;" x1="242.25" x2="384.25" y1="182.3828" y2="182.3828"/><text fill="#000000" font-family="sans-serif" font-size="13" lengthAdjust="spacing" textLength="55" x="249.25" y="177.3169">get/set()</text><polygon fill="#A80036" points="457.25,207.5156,467.25,211.5156,457.25,215.5156,461.25,211.5156" style="stroke:#A80036;stroke-width:1.0;"/><line style="stroke:#A80036;stroke-width:1.0;" x1="390.25" x2="463.25" y1="211.5156" y2="211.5156"/><text fill="#000000" font-family="sans-serif" font-size="13" lengthAdjust="spacing" textLength="55" x="397.25" y="206.4497">get/set()</text><polygon fill="#A80036" points="253.25,236.6484,243.25,240.6484,253.25,244.6484,249.25,240.6484" style="stroke:#A80036;stroke-width:1.0;"/><line style="stroke:#A80036;stroke-width:1.0;" x1="247.25" x2="389.25" y1="240.6484" y2="240.6484"/><text fill="#000000" font-family="sans-serif" font-size="13" lengthAdjust="spacing" textLength="124" x="259.25" y="235.5825">return Model/Result</text><polygon fill="#A80036" points="90.75,265.7813,80.75,269.7813,90.75,273.7813,86.75,269.7813" style="stroke:#A80036;stroke-width:1.0;"/><line style="stroke:#A80036;stroke-width:1.0;stroke-dasharray:2.0,2.0;" x1="84.75" x2="241.25" y1="269.7813" y2="269.7813"/><text fill="#000000" font-family="sans-serif" font-size="13" lengthAdjust="spacing" textLength="34" x="96.75" y="264.7153">show</text><!--MD5=[96e2a584e1be671a919da1ee15eaaba6]
@startuml
title "Diagramna de secuencia de Arquitectura Angular General"

actor User
control GETRoute
boundary "Component" as View
control "Service" as Controller
entity Model

User -> GETRoute 
GETRoute -> View
View -> Controller : get/set()
Controller -> Model : get/set()
View <- Controller : return Model/Result
User <- - View : show
@enduml

PlantUML version 1.2021.5beta3(Unknown compile time)
(GPL source distribution)
Java Runtime: Java(TM) SE Runtime Environment
JVM: Java HotSpot(TM) 64-Bit Server VM
Default Encoding: UTF-8
Language: en
Country: US
--></g></svg>