<?xml version="1.0" encoding="UTF-8" standalone="no"?><svg xmlns="http://www.w3.org/2000/svg" xmlns:xlink="http://www.w3.org/1999/xlink" contentScriptType="application/ecmascript" contentStyleType="text/css" height="317px" preserveAspectRatio="none" style="width:197px;height:317px;" version="1.1" viewBox="0 0 197 317" width="197px" zoomAndPan="magnify"><defs><filter height="300%" id="f1fa33iaxhydvh" width="300%" x="-1" y="-1"><feGaussianBlur result="blurOut" stdDeviation="2.0"/><feColorMatrix in="blurOut" result="blurOut2" type="matrix" values="0 0 0 0 0 0 0 0 0 0 0 0 0 0 0 0 0 0 .4 0"/><feOffset dx="4.0" dy="4.0" in="blurOut2" result="blurOut3"/><feBlend in="SourceGraphic" in2="blurOut3" mode="normal"/></filter></defs><g><text fill="#000000" font-family="sans-serif" font-size="18" lengthAdjust="spacing" textLength="182" x="2" y="16.708">Arquitectura Nestjs</text><!--MD5=[1d7ba1c7002d54515419844fbd155368]
class Controller--><rect codeLine="3" fill="#FEFECE" filter="url(#f1fa33iaxhydvh)" height="53.9375" id="Controller" style="stroke:#A80036;stroke-width:1.5;" width="99" x="59.5" y="27.9531"/><ellipse cx="74.5" cy="46.9219" fill="#ADD1B2" rx="11" ry="11" style="stroke:#A80036;stroke-width:1.0;"/><path d="M76.8438,42.5938 C75.9063,42.1563 75.3125,42.0156 74.4375,42.0156 C71.8125,42.0156 69.8125,44.0938 69.8125,46.8125 L69.8125,47.9375 C69.8125,50.5156 71.9219,52.4063 74.8125,52.4063 C76.0313,52.4063 77.1875,52.1094 77.9375,51.5625 C78.5156,51.1563 78.8438,50.7031 78.8438,50.3125 C78.8438,49.8594 78.4531,49.4688 77.9844,49.4688 C77.7656,49.4688 77.5625,49.5469 77.375,49.7344 C76.9219,50.2188 76.9219,50.2188 76.7344,50.3125 C76.3125,50.5781 75.625,50.7031 74.8594,50.7031 C72.8125,50.7031 71.5156,49.6094 71.5156,47.9063 L71.5156,46.8125 C71.5156,45.0313 72.7656,43.7188 74.5,43.7188 C75.0781,43.7188 75.6875,43.875 76.1563,44.125 C76.6406,44.4063 76.8125,44.625 76.9063,45.0313 C76.9688,45.4375 77,45.5625 77.1406,45.6875 C77.2813,45.8281 77.5156,45.9375 77.7344,45.9375 C78,45.9375 78.2656,45.7969 78.4375,45.5781 C78.5469,45.4219 78.5781,45.2344 78.5781,44.8125 L78.5781,43.3906 C78.5781,42.9531 78.5625,42.8281 78.4688,42.6719 C78.3125,42.4063 78.0313,42.2656 77.7344,42.2656 C77.4375,42.2656 77.2344,42.3594 77.0156,42.6719 L76.8438,42.5938 Z " fill="#000000"/><text fill="#000000" font-family="sans-serif" font-size="12" font-style="italic" lengthAdjust="spacing" textLength="71" x="86.5" y="44.0918">«controller»</text><text fill="#000000" font-family="sans-serif" font-size="12" lengthAdjust="spacing" textLength="59" x="92.5" y="58.0605">Controller</text><line style="stroke:#A80036;stroke-width:1.5;" x1="60.5" x2="157.5" y1="65.8906" y2="65.8906"/><line style="stroke:#A80036;stroke-width:1.5;" x1="60.5" x2="157.5" y1="73.8906" y2="73.8906"/><!--MD5=[dbb8b4f13c7b21394f9d757e58732f45]
class Service--><rect codeLine="4" fill="#FEFECE" filter="url(#f1fa33iaxhydvh)" height="53.9375" id="Service" style="stroke:#A80036;stroke-width:1.5;" width="99" x="8.5" y="141.9531"/><ellipse cx="23.5" cy="160.9219" fill="#ADD1B2" rx="11" ry="11" style="stroke:#A80036;stroke-width:1.0;"/><path d="M25.8438,156.5938 C24.9063,156.1563 24.3125,156.0156 23.4375,156.0156 C20.8125,156.0156 18.8125,158.0938 18.8125,160.8125 L18.8125,161.9375 C18.8125,164.5156 20.9219,166.4063 23.8125,166.4063 C25.0313,166.4063 26.1875,166.1094 26.9375,165.5625 C27.5156,165.1563 27.8438,164.7031 27.8438,164.3125 C27.8438,163.8594 27.4531,163.4688 26.9844,163.4688 C26.7656,163.4688 26.5625,163.5469 26.375,163.7344 C25.9219,164.2188 25.9219,164.2188 25.7344,164.3125 C25.3125,164.5781 24.625,164.7031 23.8594,164.7031 C21.8125,164.7031 20.5156,163.6094 20.5156,161.9063 L20.5156,160.8125 C20.5156,159.0313 21.7656,157.7188 23.5,157.7188 C24.0781,157.7188 24.6875,157.875 25.1563,158.125 C25.6406,158.4063 25.8125,158.625 25.9063,159.0313 C25.9688,159.4375 26,159.5625 26.1406,159.6875 C26.2813,159.8281 26.5156,159.9375 26.7344,159.9375 C27,159.9375 27.2656,159.7969 27.4375,159.5781 C27.5469,159.4219 27.5781,159.2344 27.5781,158.8125 L27.5781,157.3906 C27.5781,156.9531 27.5625,156.8281 27.4688,156.6719 C27.3125,156.4063 27.0313,156.2656 26.7344,156.2656 C26.4375,156.2656 26.2344,156.3594 26.0156,156.6719 L25.8438,156.5938 Z " fill="#000000"/><text fill="#000000" font-family="sans-serif" font-size="12" font-style="italic" lengthAdjust="spacing" textLength="71" x="35.5" y="158.0918">«controller»</text><text fill="#000000" font-family="sans-serif" font-size="12" lengthAdjust="spacing" textLength="46" x="48" y="172.0605">Service</text><line style="stroke:#A80036;stroke-width:1.5;" x1="9.5" x2="106.5" y1="179.8906" y2="179.8906"/><line style="stroke:#A80036;stroke-width:1.5;" x1="9.5" x2="106.5" y1="187.8906" y2="187.8906"/><!--MD5=[7e20e022571e30ec1001cf6eabd7f3e2]
class Model--><rect codeLine="5" fill="#FEFECE" filter="url(#f1fa33iaxhydvh)" height="48" id="Model" style="stroke:#A80036;stroke-width:1.5;" width="69" x="23.5" y="255.9531"/><ellipse cx="38.5" cy="271.9531" fill="#ADD1B2" rx="11" ry="11" style="stroke:#A80036;stroke-width:1.0;"/><path d="M40.8438,267.625 C39.9063,267.1875 39.3125,267.0469 38.4375,267.0469 C35.8125,267.0469 33.8125,269.125 33.8125,271.8438 L33.8125,272.9688 C33.8125,275.5469 35.9219,277.4375 38.8125,277.4375 C40.0313,277.4375 41.1875,277.1406 41.9375,276.5938 C42.5156,276.1875 42.8438,275.7344 42.8438,275.3438 C42.8438,274.8906 42.4531,274.5 41.9844,274.5 C41.7656,274.5 41.5625,274.5781 41.375,274.7656 C40.9219,275.25 40.9219,275.25 40.7344,275.3438 C40.3125,275.6094 39.625,275.7344 38.8594,275.7344 C36.8125,275.7344 35.5156,274.6406 35.5156,272.9375 L35.5156,271.8438 C35.5156,270.0625 36.7656,268.75 38.5,268.75 C39.0781,268.75 39.6875,268.9063 40.1563,269.1563 C40.6406,269.4375 40.8125,269.6563 40.9063,270.0625 C40.9688,270.4688 41,270.5938 41.1406,270.7188 C41.2813,270.8594 41.5156,270.9688 41.7344,270.9688 C42,270.9688 42.2656,270.8281 42.4375,270.6094 C42.5469,270.4531 42.5781,270.2656 42.5781,269.8438 L42.5781,268.4219 C42.5781,267.9844 42.5625,267.8594 42.4688,267.7031 C42.3125,267.4375 42.0313,267.2969 41.7344,267.2969 C41.4375,267.2969 41.2344,267.3906 41.0156,267.7031 L40.8438,267.625 Z " fill="#000000"/><text fill="#000000" font-family="sans-serif" font-size="12" lengthAdjust="spacing" textLength="37" x="52.5" y="276.1074">Model</text><line style="stroke:#A80036;stroke-width:1.5;" x1="24.5" x2="91.5" y1="287.9531" y2="287.9531"/><line style="stroke:#A80036;stroke-width:1.5;" x1="24.5" x2="91.5" y1="295.9531" y2="295.9531"/><!--MD5=[9d4cc6231037a1257c6c981077361444]
class Dto--><rect codeLine="6" fill="#FEFECE" filter="url(#f1fa33iaxhydvh)" height="48" id="Dto" style="stroke:#A80036;stroke-width:1.5;" width="53" x="130.5" y="255.9531"/><ellipse cx="145.5" cy="271.9531" fill="#ADD1B2" rx="11" ry="11" style="stroke:#A80036;stroke-width:1.0;"/><path d="M147.8438,267.625 C146.9063,267.1875 146.3125,267.0469 145.4375,267.0469 C142.8125,267.0469 140.8125,269.125 140.8125,271.8438 L140.8125,272.9688 C140.8125,275.5469 142.9219,277.4375 145.8125,277.4375 C147.0313,277.4375 148.1875,277.1406 148.9375,276.5938 C149.5156,276.1875 149.8438,275.7344 149.8438,275.3438 C149.8438,274.8906 149.4531,274.5 148.9844,274.5 C148.7656,274.5 148.5625,274.5781 148.375,274.7656 C147.9219,275.25 147.9219,275.25 147.7344,275.3438 C147.3125,275.6094 146.625,275.7344 145.8594,275.7344 C143.8125,275.7344 142.5156,274.6406 142.5156,272.9375 L142.5156,271.8438 C142.5156,270.0625 143.7656,268.75 145.5,268.75 C146.0781,268.75 146.6875,268.9063 147.1563,269.1563 C147.6406,269.4375 147.8125,269.6563 147.9063,270.0625 C147.9688,270.4688 148,270.5938 148.1406,270.7188 C148.2813,270.8594 148.5156,270.9688 148.7344,270.9688 C149,270.9688 149.2656,270.8281 149.4375,270.6094 C149.5469,270.4531 149.5781,270.2656 149.5781,269.8438 L149.5781,268.4219 C149.5781,267.9844 149.5625,267.8594 149.4688,267.7031 C149.3125,267.4375 149.0313,267.2969 148.7344,267.2969 C148.4375,267.2969 148.2344,267.3906 148.0156,267.7031 L147.8438,267.625 Z " fill="#000000"/><text fill="#000000" font-family="sans-serif" font-size="12" lengthAdjust="spacing" textLength="21" x="159.5" y="276.1074">Dto</text><line style="stroke:#A80036;stroke-width:1.5;" x1="131.5" x2="182.5" y1="287.9531" y2="287.9531"/><line style="stroke:#A80036;stroke-width:1.5;" x1="131.5" x2="182.5" y1="295.9531" y2="295.9531"/><!--MD5=[6ee88e067ac5b020ca91296d15764b13]
link Controller to Service--><path codeLine="8" d="M97.0428,82.2121 C89.5614,98.6421 79.8891,119.8831 72.0434,137.1131 " fill="none" id="Controller-to-Service" style="stroke:#A80036;stroke-width:1.0;"/><polygon fill="#A80036" points="69.8823,141.8581,77.2516,135.3241,71.9538,137.3074,69.9705,132.0097,69.8823,141.8581" style="stroke:#A80036;stroke-width:1.0;"/><!--MD5=[b8929c7e82baaae7bf3098cd499147cc]
link Service to Model--><path codeLine="9" d="M58,196.0611 C58,212.4996 58,233.7188 58,250.5731 " fill="none" id="Service-to-Model" style="stroke:#A80036;stroke-width:1.0;"/><polygon fill="#A80036" points="58,255.6535,62,246.6535,58,250.6535,54,246.6535,58,255.6535" style="stroke:#A80036;stroke-width:1.0;"/><!--MD5=[349233a7303328d43b1fb06c5cc610d0]
link Service to Dto--><path codeLine="10" d="M81.713,196.0611 C97.0292,212.9247 116.915,234.8196 132.403,251.8718 " fill="none" id="Service-to-Dto" style="stroke:#A80036;stroke-width:1.0;"/><polygon fill="#A80036" points="135.838,255.6535,132.7482,246.3019,132.4764,251.9522,126.8261,251.6805,135.838,255.6535" style="stroke:#A80036;stroke-width:1.0;"/><!--MD5=[3b6668e8c5ca850ec0acdc06ffe46f5d]
link Controller to Dto--><path codeLine="11" d="M114.6,81.9701 C123.678,124.1451 141.533,207.0978 150.914,250.6786 " fill="none" id="Controller-to-Dto" style="stroke:#A80036;stroke-width:1.0;stroke-dasharray:7.0,7.0;"/><polygon fill="#A80036" points="152.015,255.7928,154.0312,246.1526,150.9627,250.9048,146.2104,247.8363,152.015,255.7928" style="stroke:#A80036;stroke-width:1.0;"/><!--MD5=[9ddf22a548f425eb216f9207e9c8877d]
@startuml
title "Arquitectura Nestjs"

class Controller <<controller>>
class Service <<controller>>
class Model
class Dto

Controller - -> Service
Service - -> Model
Service - -> Dto
Controller ..> Dto
@enduml

PlantUML version 1.2021.5beta3(Unknown compile time)
(GPL source distribution)
Java Runtime: Java(TM) SE Runtime Environment
JVM: Java HotSpot(TM) 64-Bit Server VM
Default Encoding: UTF-8
Language: en
Country: US
--></g></svg>